<svg width="58" height="58" viewBox="0 0 58 58" fill="none" xmlns="http://www.w3.org/2000/svg">
<g clip-path="url(#clip0_0_1885)">
<path d="M45.3913 5.4375H5.04348C2.25805 5.4375 0 7.69555 0 10.481V40.7419C0 43.5274 2.25805 45.7854 5.04348 45.7854H45.3913C48.1768 45.7854 50.4348 43.5274 50.4348 40.7419V10.481C50.4348 7.69555 48.1768 5.4375 45.3913 5.4375Z" fill="url(#paint0_linear_0_1885)"/>
<path d="M47.9131 10.481H5.04348C2.25805 10.481 0 12.739 0 15.5244V45.7854C0 48.5707 2.25805 50.8289 5.04348 50.8289H47.9131C50.6985 50.8289 52.9565 48.5707 52.9565 45.7854V15.5244C52.9565 12.739 50.6985 10.481 47.9131 10.481Z" fill="url(#paint1_linear_0_1885)"/>
<path d="M37.8261 30.6548C37.8261 34.833 41.2133 38.2202 45.3913 38.2202L58.0002 38.217L57.9969 23.0897H45.3913C41.2133 23.0897 37.8261 26.4769 37.8261 30.6548Z" fill="#FFDF00"/>
<path d="M45.3908 33.1765C46.7835 33.1765 47.9125 32.0475 47.9125 30.6548C47.9125 29.2621 46.7835 28.1331 45.3908 28.1331C43.9981 28.1331 42.8691 29.2621 42.8691 30.6548C42.8691 32.0475 43.9981 33.1765 45.3908 33.1765Z" fill="#00335B"/>
</g>
<defs>
<linearGradient id="paint0_linear_0_1885" x1="-15.8252" y1="67.4228" x2="-5.54892" y2="4.53083" gradientUnits="userSpaceOnUse">
<stop stop-color="#FFB300"/>
<stop offset="0.999999" stop-color="#FF4900"/>
</linearGradient>
<linearGradient id="paint1_linear_0_1885" x1="0" y1="10.481" x2="34.1631" y2="60.1841" gradientUnits="userSpaceOnUse">
<stop stop-color="#FFB300"/>
<stop offset="1" stop-color="#FF4900"/>
</linearGradient>
<clipPath id="clip0_0_1885">
<rect width="58" height="58" fill="white"/>
</clipPath>
</defs>
</svg>
