<svg width="25" height="22" viewBox="0 0 25 22" fill="none" xmlns="http://www.w3.org/2000/svg">
<path fill-rule="evenodd" clip-rule="evenodd" d="M20.0649 7.18969C20.3913 7.15356 20.7 7.38675 20.7545 7.71059L21.8703 14.3444C21.9247 14.6683 21.7043 14.9601 21.3779 14.9962C21.0515 15.0323 20.7428 14.7991 20.6883 14.4753L19.8106 9.25705L13.2239 17.9765C13.0317 18.231 12.6575 18.2724 12.3882 18.069C12.1189 17.8656 12.0564 17.4943 12.2487 17.2398L18.8354 8.52034L13.576 9.1026C13.2496 9.13874 12.9408 8.90551 12.8864 8.58168C12.8319 8.25784 13.0523 7.96605 13.3787 7.92991L20.0649 7.18969Z" fill="#32CD32"/>
<path fill-rule="evenodd" clip-rule="evenodd" d="M4.56845 13.9137C4.24028 13.9257 3.9496 13.6704 3.91912 13.3435L3.29499 6.64545C3.26452 6.31848 3.50583 6.04371 3.834 6.03172C4.16217 6.01972 4.45286 6.27501 4.48332 6.60199L4.97431 11.8707L12.1853 3.66012C12.3958 3.42044 12.7721 3.40669 13.0257 3.6294C13.2792 3.85211 13.3142 4.22697 13.1037 4.46665L5.89264 12.6773L11.1807 12.484C11.5088 12.472 11.7996 12.7273 11.83 13.0543C11.8605 13.3812 11.6192 13.656 11.291 13.668L4.56845 13.9137Z" fill="#FF0000"/>
</svg>
